<?xml version="1.0" encoding="UTF-8" standalone="no"?>
<!-- Created with Inkscape (http://www.inkscape.org/) -->
<svg xmlns:inkscape="http://www.inkscape.org/namespaces/inkscape" xmlns:rdf="http://www.w3.org/1999/02/22-rdf-syntax-ns#" xmlns="http://www.w3.org/2000/svg" xmlns:sodipodi="http://sodipodi.sourceforge.net/DTD/sodipodi-0.dtd" xmlns:ns1="http://sozi.baierouge.fr" xmlns:cc="http://creativecommons.org/ns#" xmlns:xlink="http://www.w3.org/1999/xlink" xmlns:dc="http://purl.org/dc/elements/1.1/" id="svg2" sodipodi:docname="fjcanals_.svg" inkscape:export-filename="C:\DATOS\Compartida\RecursosIes\Docencia\Recursos_Imagenes_LogotiposDiseñoHerramientas\PERSONALES_CursosTecnologiaOtros\DISEÑO_LogotiposWebAsociacionesAmigosVarios\DISEÑO_2014_4_6Abril_ArchivoOpenClipArt\fjcanals_CineCinema.png" viewBox="0 0 320.44 498.78" inkscape:export-xdpi="142.70433" version="1.1" inkscape:export-ydpi="142.70433" inkscape:version="0.48.5 r10040">
  <sodipodi:namedview id="namedview4" fit-margin-left="0" inkscape:showpageshadow="true" inkscape:zoom="1.0429825" borderopacity="1" inkscape:current-layer="svg2" inkscape:cx="197.74184" inkscape:cy="288.40782" borderlayer="true" inkscape:window-maximized="1" showgrid="false" fit-margin-right="0" bordercolor="#666666" inkscape:window-x="-9" guidetolerance="10" objecttolerance="10" inkscape:window-y="-9" fit-margin-bottom="0" inkscape:window-width="1920" inkscape:pageopacity="0" inkscape:pageshadow="2" pagecolor="#ffffff" gridtolerance="10" inkscape:window-height="1005" showborder="true" fit-margin-top="0"/>
  <path id="path2989" style="stroke:#000000;stroke-width:5;fill:#ffffff" inkscape:connector-curvature="0" d="m24.552 231.65-13.423 250.24 300.1 14.382 6.7115-256.96z"/>
  <path id="path3759" style="stroke:#000000;stroke-width:1px;fill:#030000" inkscape:connector-curvature="0" d="m35.099 243.16-12.464 226.27 271.34 11.51 9.58-220.53z"/>
  <path id="path3779" style="stroke:#000000;stroke-width:5;fill:#ffffff" inkscape:connector-curvature="0" d="m23.593 231.65-21.093-65.2 237.78-163.95 30.68 62.321z"/>
  <path id="path3781" style="fill:#000000" inkscape:connector-curvature="0" d="m14.079 177.15 13.469 38.33 230.88-156.56-15.39-42.167z"/>
  <path id="path3767" style="fill:#ffffff" inkscape:connector-curvature="0" d="m48.522 253.7-1.9176 32.599 37.393 2.8764-4.7939-32.599z"/>
  <path id="path3769" style="fill:#ffffff" inkscape:connector-curvature="0" d="m94.544 290.14-1.9176-30.681 30.681 0.95879-0.95879 29.722z"/>
  <path id="path3771" style="fill:#ffffff" inkscape:connector-curvature="0" d="m136.73 262.33-5.7527 29.722 35.475 1.9176-1.9176-29.722z"/>
  <path id="path3773" style="fill:#ffffff" inkscape:connector-curvature="0" d="m182.75 260.41-1.9176 36.434h33.558l-4.794-32.599z"/>
  <path id="path3775" style="fill:#ffffff" inkscape:connector-curvature="0" d="m228.77 295.89-0.95879-30.681 28.764 2.8764-3.8352 33.558z"/>
  <path id="path3777" style="fill:#ffffff" inkscape:connector-curvature="0" d="m269.04 267.13-2.8764 36.434 28.764 0.95879v-33.558z"/>
  <path id="path3783" style="fill:#ffffff" inkscape:connector-curvature="0" d="m25.511 179.88 10.547 20.13 21.093-12.46-12.464-23.01z"/>
  <path id="path3785" style="fill:#ffffff" inkscape:connector-curvature="0" d="m51.398 159.74 19.176-14.382 10.547 20.135-16.299 10.547z"/>
  <path id="path3787" style="fill:#ffffff" inkscape:connector-curvature="0" d="m81.121 139.61 25.887-18.217 15.341 24.929-27.805 12.464z"/>
  <path id="path3789" style="fill:#ffffff" inkscape:connector-curvature="0" d="m118.51 116.6 23.011-21.093 16.299 23.011-29.722 15.341z"/>
  <path id="path3791" style="fill:#ffffff" inkscape:connector-curvature="0" d="m153.99 87.832 27.805-23.011 13.423 26.846-24.929 13.423z"/>
  <path id="path3793" style="fill:#ffffff" inkscape:connector-curvature="0" d="m199.05 57.151 27.805-23.011 11.505 23.97-27.805 19.176z"/>
  <path id="path3795" sodipodi:rx="22.052143" sodipodi:ry="32.359123" style="fill:#ffffff" sodipodi:type="arc" d="m492.34 599.98a22.052 32.359 0 1 1 -0.00003 -0.0551" sodipodi:open="true" transform="matrix(.99283 .11955 -.11955 .99283 -270.92 -293.45)" sodipodi:cy="599.979" sodipodi:cx="470.28595" sodipodi:end="6.2814833" sodipodi:start="0"/>
  <path id="path3797" sodipodi:rx="22.291842" sodipodi:ry="33.55761" style="fill:#ffffff" sodipodi:type="arc" d="m553.22 604.53a22.292 33.558 0 1 1 -0.00003 -0.0571" sodipodi:open="true" transform="matrix(0.999 -.044712 .044712 0.999 -356.7 -217.19)" sodipodi:cy="604.53326" sodipodi:cx="530.92932" sodipodi:end="6.2814833" sodipodi:start="0"/>
  <path id="path3799" sodipodi:rx="6.7115221" sodipodi:ry="11.745164" style="fill:#000000" sodipodi:type="arc" d="m469.33 604.77a6.7115 11.745 0 1 1 -0.00001 -0.02" sodipodi:open="true" transform="translate(-340.75 -240.09)" sodipodi:cy="604.77295" sodipodi:cx="462.61563" sodipodi:end="6.2814833" sodipodi:start="0"/>
  <path id="path3801" sodipodi:rx="6.7115221" sodipodi:ry="12.703953" style="fill:#000000" sodipodi:type="arc" d="m545.07 609.09a6.7115 12.704 0 1 1 -0.00001 -0.0216" sodipodi:open="true" transform="translate(-340.75 -240.09)" sodipodi:cy="609.08752" sodipodi:cx="538.35992" sodipodi:end="6.2814833" sodipodi:start="0"/>
  <path id="path3803" sodipodi:rx="34.276703" sodipodi:ry="29.722454" style="fill:#ffffff" sodipodi:type="arc" d="m534.66 664.56a34.277 29.722 0 1 1 -67.118 -3.2226l33.187 7.4347z" transform="translate(-340.75 -240.09)" sodipodi:cy="668.77209" sodipodi:cx="500.72748" sodipodi:end="9.6776019" sodipodi:start="6.1409924"/>
  <path id="path3805" sodipodi:rx="19.655172" sodipodi:ry="16.29941" style="fill:#d92626" sodipodi:type="arc" d="m518.99 678.93a19.655 16.299 0 1 1 -38.487 -1.7673l19.03 4.0771z" transform="translate(-338.83 -253.03)" sodipodi:cy="681.23633" sodipodi:cx="499.52899" sodipodi:end="9.6776019" sodipodi:start="6.1409924"/>
  <metadata>
    <rdf:RDF>
      <cc:Work>
        <dc:format>image/svg+xml</dc:format>
        <dc:type rdf:resource="http://purl.org/dc/dcmitype/StillImage"/>
        <cc:license rdf:resource="http://creativecommons.org/licenses/publicdomain/"/>
        <dc:publisher>
          <cc:Agent rdf:about="http://openclipart.org/">
            <dc:title>Openclipart</dc:title>
          </cc:Agent>
        </dc:publisher>
      </cc:Work>
      <cc:License rdf:about="http://creativecommons.org/licenses/publicdomain/">
        <cc:permits rdf:resource="http://creativecommons.org/ns#Reproduction"/>
        <cc:permits rdf:resource="http://creativecommons.org/ns#Distribution"/>
        <cc:permits rdf:resource="http://creativecommons.org/ns#DerivativeWorks"/>
      </cc:License>
    </rdf:RDF>
  </metadata>
</svg>
